<svg xmlns="http://www.w3.org/2000/svg" width="256" height="256"><path fill="#1976D2" fill-opacity=".016" fill-rule="evenodd" d="M0 128.004v128.004l128.25-.254 128.25-.254.254-127.75L257.008 0H0zm.485.496c0 70.4.119 99.053.265 63.672s.146-92.98 0-128S.485 58.1.485 128.5"/><path fill="#1976D2" fill-opacity=".199" fill-rule="evenodd" d="M0 61v42h16V69.302l10.228-.623c8.858-.54 11.102-1.062 16.75-3.901 4.657-2.341 7.38-4.518 9.522-7.614 2.774-4.009 3-4.996 3-13.073 0-7.895-.27-9.145-2.8-12.967-3.423-5.173-10.231-9.643-16.848-11.062C33.129 19.478 23.949 19 15.451 19H0zm60.013-41.25c.007.413 5.551 19.2 12.321 41.75l12.309 41h15.687l8.691-26.5c4.997-15.237 8.966-25.862 9.338-25 .356.825 4.395 12.75 8.977 26.5l8.33 25 7.611.291 7.612.291 2.993-9.791c2.294-7.503 18.616-61.973 21.75-72.583.483-1.636-.188-1.766-7.724-1.5l-8.254.292-8.575 29.682c-4.717 16.325-8.864 29.15-9.216 28.5s-4.551-13.015-9.333-27.478l-8.693-26.295-6.141.295-6.142.296-8.74 26.879c-4.807 14.784-8.908 27.049-9.114 27.255s-3.662-10.99-7.679-24.88-7.932-27.391-8.701-30.004L75.923 19h-7.962c-4.378 0-7.955.337-7.948.75m134.588 40.751c-9.13 22.826-16.601 41.726-16.601 42s3.763.499 8.363.499h8.363l3.228-9.024 3.228-9.025 16.047.275 16.047.274 3.031 8.75 3.031 8.75h8.331c4.582 0 8.331-.224 8.331-.499 0-.274-7.471-19.174-16.601-42L222.797 19h-11.594zM16 44.119v10.12l9.25-.426c10.153-.467 13.022-1.642 14.864-6.087.888-2.145.893-3.758.022-6.667C38.545 35.749 34.571 34 24.099 34H16zM216.212 45c-5.087 13.382-9.404 26.141-8.986 26.559.282.283 4.986.385 10.452.227l9.939-.286L222.39 57c-4.611-12.788-5.34-14.205-6.178-12M42.804 151.519c-2.898.932-6.727 3.414-10 6.482l-5.304 4.971 3.5 2.963c6.101 5.164 7.909 5.805 9.834 3.486 4.004-4.824 9.973-6.865 15.565-5.321 4.058 1.12 6.386 3.575 7.186 7.577l.609 3.045-12.558.484c-10.734.414-13.254.837-17.347 2.916-9.999 5.078-12.162 17.933-4.542 26.989 3.786 4.5 9.56 6.841 16.938 6.867 7.367.026 9.951-.841 14.56-4.888 3.827-3.36 4.755-3.15 4.755 1.077 0 2.824.021 2.833 6.586 2.833h6.586l-.364-21.25c-.302-17.636-.665-21.93-2.139-25.25-2.248-5.066-6.093-9.13-11.05-11.679-5.192-2.669-16.546-3.317-22.815-1.302m74.696-.359c-1.65.619-4.237 1.992-5.75 3.051l-2.75 1.925v-2.568c0-2.529-.114-2.568-7.5-2.568H94v86h15v-15.655c0-14.827.093-15.574 1.75-14.121 3.741 3.28 8.246 4.776 14.385 4.776 14.642 0 24.414-10.661 25.597-27.928.927-13.519-4.197-25.33-13.304-30.667-5.143-3.014-14.933-4.117-19.928-2.245m70.264-.224c-1.505.486-4.317 1.861-6.25 3.055L178 156.163v-2.581c0-2.546-.103-2.582-7.5-2.582H163v86h15v-15.655c0-14.968.078-15.584 1.787-14.038 5.285 4.783 17.392 6.166 24.713 2.822 5.115-2.336 9.823-7.189 12.638-13.028 3.309-6.861 3.803-21.601.976-29.101-2.613-6.932-7.138-12.461-12.388-15.14-4.518-2.305-13.727-3.291-17.962-1.924m-73.574 15.09c-4.227 2.577-6.19 7.325-6.19 14.974 0 11.485 4.412 17 13.6 17 4.505 0 5.863-.468 8.77-3.02 7.589-6.663 7.046-22.574-.985-28.892-3.525-2.772-10.702-2.802-15.195-.062m69.659-.506c-8.945 4.859-8.93 26.284.023 30.914 4.141 2.141 10.939 1.979 14.763-.353 8.851-5.397 8.053-26.713-1.157-30.909-3.483-1.587-10.391-1.411-13.629.348M46 186.709c-4.931 1.814-6.629 7.507-3.171 10.636 2.354 2.131 9.314 2.156 13.754.049 3.467-1.645 7.417-6.845 7.417-9.762 0-1.384-1.255-1.62-8.25-1.553-4.538.043-8.925.327-9.75.63"/><path fill="#1976D2" fill-opacity=".667" fill-rule="evenodd" d="M.667 19.667C.3 20.033 0 38.933 0 61.667V103h15V68h9.318c12.772 0 18.903-1.942 24.819-7.861 8.832-8.836 9.309-22.212 1.115-31.282-4.464-4.941-9.058-7.35-16.717-8.766-6.4-1.183-31.782-1.511-32.868-.424m59.599.583c.351.917 17.712 58.668 24.349 81 .433 1.457 1.728 1.75 7.723 1.75h7.204l8.951-26.978c4.923-14.838 9.245-26.651 9.604-26.25s4.572 12.541 9.361 26.978l8.708 26.25h14.456l12.197-40.75c6.709-22.413 12.194-41.312 12.189-42-.006-.887-2.17-1.25-7.461-1.25h-7.453l-.97 3.512c-6.965 25.225-16.678 57.311-17.174 56.731-.349-.409-4.616-13.005-9.483-27.993L123.618 24H112.07l-9.116 28.086c-5.013 15.447-9.282 27.92-9.485 27.717s-4-12.955-8.438-28.336c-4.438-15.382-8.501-28.979-9.028-30.217-.876-2.053-1.629-2.25-8.589-2.25-5.691 0-7.506.317-7.148 1.25m150.89.458c-.761 1.423-20.879 51.348-31.263 77.582l-1.896 4.791 8.246-.291 8.245-.29 3.014-8.5 3.014-8.5 16.497-.273 16.498-.273 2.928 8.625c1.611 4.744 3.451 8.825 4.089 9.07.637.245 4.339.311 8.225.148l7.067-.297L239.16 61 222.5 19.5l-5.188-.3c-4.177-.242-5.377.052-6.156 1.508M15 43.5V54h9.05C36.916 54 41 51.518 41 43.701 41 36.439 34.752 33 21.557 33H15zm201.213.5c-.525 1.375-2.778 7.45-5.007 13.5s-4.359 11.787-4.736 12.75c-.627 1.603.254 1.75 10.49 1.75 10.205 0 11.126-.152 10.617-1.757-.307-.967-2.774-7.829-5.483-15.25-4.369-11.969-5.033-13.211-5.881-10.993M46.723 151.066c-5.73.931-12.537 4.735-16.148 9.027l-2.635 3.132 5.211 3.887c2.865 2.139 5.309 3.888 5.43 3.888s1.759-1.54 3.64-3.421c4.069-4.069 9.262-5.35 14.87-3.67 4.026 1.206 6.364 4.219 7.055 9.091l.354 2.5-13.5.508c-14.436.543-17.218 1.36-21.97 6.446-2.021 2.163-2.528 3.861-2.79 9.345-.265 5.562.075 7.38 2.001 10.698 2.877 4.958 8.99 8.466 16.003 9.185 7.014.718 12.49-.907 17.497-5.192l4.135-3.54.312 3.775.312 3.775 5.804.302 5.803.301-.303-22.384-.304-22.383-3-4.918c-4.942-8.102-16.076-12.251-27.777-10.352m71.998.382c-2.628.692-5.807 2.224-7.064 3.405-2.95 2.771-3.486 2.705-2.902-.353.476-2.49.447-2.5-7.138-2.5H94v85.088l7.25-.294 7.25-.294.276-15.299.277-15.3 2.723 1.911c7.398 5.189 18.139 5.378 26.113.46 14.268-8.8 17.23-35.426 5.47-49.166-6.257-7.31-15.29-10.117-24.638-7.658M190 150.93c-3.878.775-7.589 2.533-10.25 4.853-1.611 1.405-1.75 1.315-1.75-1.128 0-2.637-.05-2.655-7.5-2.655H163v85h15v-30.893l5.602 2.946c12.97 6.823 27.179 1.332 33.779-13.053 1.64-3.576 2.07-6.556 2.092-14.518.025-9.344-.195-10.469-3.282-16.742-3.914-7.955-9.303-12.244-17.283-13.757-2.85-.541-5.232-.931-5.294-.868-.063.063-1.689.43-3.614.815m-73.585 13.445c-8.615 3.881-11.784 16.724-6.745 27.342 3.287 6.928 13.625 9.057 20.432 4.21 7.786-5.544 7.741-24.342-.071-29.905-3.705-2.638-9.783-3.373-13.616-1.647m70.228-.378c-6.538 2.03-9.644 7.579-9.641 17.221.002 11.043 5.056 17.282 13.998 17.282 9.016 0 13.997-6.227 13.997-17.5 0-7.279-1.986-12.289-5.997-15.127-3.12-2.208-8.607-3.041-12.357-1.876M43.875 187.506c-5.506 2.992-4.078 10.319 2.32 11.905 6.951 1.722 15.788-3.379 17.759-10.251l.906-3.16-9.18.04c-5.986.026-10.093.536-11.805 1.466"/><path fill="#1976D2" fill-opacity=".97" fill-rule="evenodd" d="M1 61.421V103h14V68h7.951c10.612 0 17.108-1.52 22.802-5.336 6.509-4.362 9.632-10.262 9.59-18.118-.055-10.325-3.836-16.623-12.843-21.391-4.792-2.536-5.76-2.66-23.25-2.98L1 19.841zm60.262-39.527c.273 1.042 5.836 19.734 12.363 41.539l11.868 39.645 6.923-.289 6.924-.289 9.211-27.5c7.956-23.754 9.344-27.159 10.19-25 .539 1.375 4.754 13.88 9.367 27.789l8.388 25.289 6.933-.289 6.934-.289 12.306-41c6.768-22.55 12.311-41.113 12.318-41.25s-3.295-.25-7.339-.25h-7.351l-5.728 19.75c-3.15 10.863-7.132 24.587-8.849 30.499s-3.417 10.412-3.779 10-4.629-13.011-9.484-27.999L123.631 25h-11.499l-9.163 28.203c-5.708 17.573-9.444 27.656-9.91 26.75-.411-.799-4.518-14.615-9.127-30.703L75.554 20H68.16c-6.763 0-7.351.161-6.898 1.894m133.98 38.871c-8.942 22.404-16.255 41.073-16.25 41.485s3.351.75 7.436.75h7.428l1.938-5.25c1.066-2.888 2.483-6.937 3.149-9l1.212-3.75h33.571l3.22 9 3.219 9h7.418c4.079 0 7.417-.299 7.417-.664s-7.289-19.04-16.199-41.5L222.603 20l-5.552.015-5.551.016zM15 44v11l6.75-.024C35.732 54.927 41 51.923 41 44c0-7.909-5.077-11-18.065-11H15zm196.25 12.342c-2.887 7.883-5.25 14.632-5.25 14.996 0 .923 21.996.835 22.018-.088.037-1.516-10.297-29.25-10.897-29.246-.342.003-2.984 6.455-5.871 14.338M43.942 151.948c-1.408.427-3.658 1.342-5 2.033-2.718 1.398-9.942 8.031-9.942 9.128 0 .387 2.204 2.287 4.897 4.221l4.897 3.518 2.353-2.519C44.58 164.653 48.329 163 53.228 163c5.198 0 8.497 2.098 10.378 6.599 2.598 6.219 2.689 6.168-11.856 6.582-11.326.323-13.865.702-17.485 2.611-5.158 2.72-7.362 5.886-7.993 11.483-1.17 10.382 4.782 18.556 15.065 20.691 8.904 1.849 15.563-.038 21.474-6.084L66 201.62l.07 2.94c.124 5.177.982 5.94 6.682 5.94h5.252l-.002-19.307c-.001-11.465-.479-21.202-1.177-23.972-1.493-5.93-8.536-13.245-14.441-14.999-4.526-1.344-14.431-1.491-18.442-.274m71.431.97c-2.269 1.03-4.433 2.371-4.809 2.978-1.195 1.934-2.564 1.189-2.564-1.396 0-2.429-.2-2.5-7-2.5h-7v85h14v-16c0-10 .375-16 1-16 .55 0 1 .367 1 .816s1.912 1.891 4.25 3.205c5.66 3.182 15.415 3.297 21.25.251 9.064-4.733 13.662-12.893 14.294-25.37.52-10.243-1.251-17.472-5.827-23.789-5.956-8.222-19.067-11.521-28.594-7.195m70.772-.848c-1.295.519-3.614 1.84-5.154 2.937-3.578 2.547-3.813 2.51-3.236-.507.474-2.477.413-2.5-6.638-2.5H164v85.091l6.75-.295 6.75-.296.276-15.817.275-15.817 2.965 2.494c4.083 3.436 12.259 5.032 18.58 3.628 10.233-2.273 17.098-10.267 19.43-22.623 2.806-14.876-3.579-30.532-14.47-35.479-4.397-1.997-14.36-2.439-18.411-.816M115 164.752c-10.179 5.085-10.709 26.187-.808 32.224 6.949 4.236 16.324 1.434 20.056-5.996 2.349-4.674 2.349-15.286 0-19.96-3.628-7.223-11.928-9.925-19.248-6.268m69.678-.268c-4.09 2.133-6.402 5.365-7.728 10.801-2.282 9.361.984 19.032 7.467 22.109 7.257 3.443 15.437.87 19.031-5.986 2.996-5.714 2.823-15.517-.373-21.122-3.803-6.67-11.86-9.211-18.397-5.802M42.455 188.455c-7.632 7.631 5.089 15.697 14.623 9.271 3.57-2.405 7.922-8.105 7.922-10.374 0-1.046-2.271-1.352-10.045-1.352-9.333 0-10.22.174-12.5 2.455"/></svg>